HIERARCHY
ROOT reference
{
  OFFSET 0 0 0
  CHANNELS 6 Xposition Yposition Zposition Zrotation Xrotation Yrotation
  JOINT Hips
  {
    OFFSET -165.36 91.4122 110.103
    CHANNELS 6 Xposition Yposition Zposition Zrotation Xrotation Yrotation
    JOINT Spine
    {
      OFFSET 0 8.12958 0
      CHANNELS 6 Xposition Yposition Zposition Zrotation Xrotation Yrotation
      JOINT Spine1
      {
        OFFSET 0 26.3907 0
        CHANNELS 6 Xposition Yposition Zposition Zrotation Xrotation Yrotation
        JOINT Neck
        {
          OFFSET 0 26.2823 2.3893
          CHANNELS 6 Xposition Yposition Zposition Zrotation Xrotation Yrotation
          JOINT Head
          {
            OFFSET 0 13.8798 -1.98282
            CHANNELS 6 Xposition Yposition Zposition Zrotation Xrotation Yrotation
            End Site
            {
              OFFSET 0 24.7853 0
            }
          }
        }
        JOINT LeftShoulder
        {
          OFFSET 3.97789 23.5745 -0.27352
          CHANNELS 6 Xposition Yposition Zposition Zrotation Xrotation Yrotation
          JOINT LeftArm
          {
            OFFSET 13.7626 0 0
            CHANNELS 6 Xposition Yposition Zposition Zrotation Xrotation Yrotation
            JOINT LeftForeArm
            {
              OFFSET 26.1014 0 0
              CHANNELS 6 Xposition Yposition Zposition Zrotation Xrotation Yrotation
              JOINT LeftHand
              {
                OFFSET 29.9599 0 0
                CHANNELS 6 Xposition Yposition Zposition Zrotation Xrotation Yrotation
                End Site
                {
                  OFFSET 14.8712 0 0
                }
              }
            }
          }
        }
        JOINT RightShoulder
        {
          OFFSET -3.9517 23.5745 -0.27352
          CHANNELS 6 Xposition Yposition Zposition Zrotation Xrotation Yrotation
          JOINT RightArm
          {
            OFFSET -13.7626 0 0
            CHANNELS 6 Xposition Yposition Zposition Zrotation Xrotation Yrotation
            JOINT RightForeArm
            {
              OFFSET -26.1014 0 0
              CHANNELS 6 Xposition Yposition Zposition Zrotation Xrotation Yrotation
              JOINT RightHand
              {
                OFFSET -29.9599 0 0
                CHANNELS 6 Xposition Yposition Zposition Zrotation Xrotation Yrotation
                End Site
                {
                  OFFSET -14.8712 0 0
                }
              }
            }
          }
        }
      }
    }
    JOINT LeftUpLeg
    {
      OFFSET 9.91412 0 0
      CHANNELS 6 Xposition Yposition Zposition Zrotation Xrotation Yrotation
      JOINT LeftLeg
      {
        OFFSET 0 -41.4279 0
        CHANNELS 6 Xposition Yposition Zposition Zrotation Xrotation Yrotation
        JOINT LeftFoot
        {
          OFFSET 0 -41.0254 0
          CHANNELS 6 Xposition Yposition Zposition Zrotation Xrotation Yrotation
          JOINT LeftToeBase
          {
            OFFSET 0 -6.44418 14.8712
            CHANNELS 6 Xposition Yposition Zposition Zrotation Xrotation Yrotation
            End Site
            {
              OFFSET 0 0 3.96565
            }
          }
        }
      }
    }
    JOINT RightUpLeg
    {
      OFFSET -9.91412 0 0
      CHANNELS 6 Xposition Yposition Zposition Zrotation Xrotation Yrotation
      JOINT RightLeg
      {
        OFFSET 0 -41.4279 0
        CHANNELS 6 Xposition Yposition Zposition Zrotation Xrotation Yrotation
        JOINT RightFoot
        {
          OFFSET 0 -41.0254 0
          CHANNELS 6 Xposition Yposition Zposition Zrotation Xrotation Yrotation
          JOINT RightToeBase
          {
            OFFSET 0 -6.44418 14.8712
            CHANNELS 6 Xposition Yposition Zposition Zrotation Xrotation Yrotation
            End Site
            {
              OFFSET 0 0 3.96565
            }
          }
        }
      }
    }
  }
}
MOTION
Frames:	6
Frame Time:	0.004
0 0 0 0 0 -0 112.892 96.8293 28.3999 7.41338 -11.7534 152.834 0 8.12958 -3.55271e-015 6.46246 4.50112 -16.8489 -1.42109e-014 26.3907 0 -1.13298 2.10951 -16.5738 0 26.2823 2.3893 7.11956 -0.295674 14.0339 0 13.8798 -1.98282 -13.4426 4.05283 12.1184 3.97789 23.5745 -0.27352 0.146305 10.7103 -3.82253 13.7626 0 0 -25.6286 25.2959 -41.0018 26.1014 1.42109e-014 1.42109e-014 13.2642 -56.495 -108.498 29.9599 -1.77636e-015 0 -8.4494 -43.8488 -16.5178 -3.9517 23.5745 -0.27352 14.1155 26.4758 -15.8147 -13.7626 0 2.66454e-015 52.8829 18.5405 -25.4617 -26.1014 2.84217e-014 -2.84217e-014 5.01844 3.10321 10.5314 -29.9599 0 -1.42109e-014 25.1711 5.19263 11.4151 9.91412 0 0 4.86557 18.2597 -0.057378 0 -41.4279 3.55271e-015 0.660655 9.02704 -3.02809 1.42109e-014 -41.0254 1.06581e-014 1.63709 34.2883 -10.4743 0 -6.44418 14.8712 -6.36111e-015 1.59028e-015 2.38542e-015 -9.91412 1.42109e-014 -7.10543e-015 -2.50492 -35.2046 -7.06471 0 -41.4279 0 8.91335 47.6861 3.51777 -2.84217e-014 -41.0254 0 19.3081 3.27038 -11.1062 0 -6.44418 14.8712 1.76556e-031 -1.59028e-015 6.36111e-015 
0 0 0 0 0 -0 113.269 97.0993 27.7665 7.12044 -11.8709 153.083 0 8.12958 3.55271e-015 6.4487 4.15004 -16.9774 1.42109e-014 26.3907 -1.42109e-014 -1.39417 2.05857 -16.7185 -1.42109e-014 26.2823 2.3893 7.34645 -0.294622 14.0574 0 13.8798 -1.98282 -13.4847 4.16041 12.1166 3.97789 23.5745 -0.27352 0.361144 10.4894 -4.04866 13.7626 0 0 -25.7026 24.9568 -41.0743 26.1014 1.42109e-014 1.42109e-014 13.9003 -57.0002 -108.168 29.9599 -5.32907e-015 7.10543e-015 -9.036 -43.8589 -16.7785 -3.9517 23.5745 -0.27352 14.1067 26.3861 -15.8632 -13.7626 -2.84217e-014 1.06581e-014 52.9691 18.5802 -25.9588 -26.1014 0 1.42109e-014 4.98393 2.79453 10.5233 -29.9599 0 0 25.8809 4.9204 11.2324 9.91412 0 7.10543e-015 4.77329 18.0944 0.060919 1.42109e-014 -41.4279 1.77636e-014 0.749472 9.06835 -2.70675 1.42109e-014 -41.0254 0 0.847765 34.9874 -9.88479 0 -6.44418 14.8712 1.32417e-031 3.18055e-015 -2.38542e-015 -9.91412 0 3.55271e-015 -2.8231 -35.4079 -7.21655 2.84217e-014 -41.4279 1.42109e-014 8.99223 46.5015 3.48424 -2.84217e-014 -41.0254 3.55271e-015 19.2208 4.42975 -11.4287 0 -6.44418 14.8712 -1.59028e-015 0 9.54166e-015 
0 0 0 0 0 -0 113.682 97.3644 27.1441 6.91109 -11.9695 153.283 -2.84217e-014 8.12958 -7.10543e-015 6.41252 3.87336 -17.0551 -1.42109e-014 26.3907 7.10543e-015 -1.5875 1.98801 -16.8105 0 26.2823 2.3893 7.52206 -0.170946 14.0187 0 13.8798 -1.98282 -13.4461 4.12926 12.0579 3.97789 23.5745 -0.27352 0.564775 10.3195 -4.3518 13.7626 0 -7.10543e-015 -25.8279 24.5619 -41.1092 26.1014 1.42109e-014 0 14.388 -57.419 -107.988 29.9599 -7.10543e-015 -1.42109e-014 -9.41123 -43.9133 -16.8463 -3.9517 23.5745 -0.27352 14.1287 26.3232 -15.9064 -13.7626 2.84217e-014 1.77636e-015 53.0677 18.6229 -26.4629 -26.1014 2.84217e-014 -4.26326e-014 4.96513 2.51897 10.5047 -29.9599 0 2.84217e-014 26.5134 4.6397 10.9216 9.91412 1.42109e-014 -1.06581e-014 4.78604 17.9852 0.3117 0 -41.4279 3.55271e-015 0.800698 9.15114 -2.21642 0 -41.0254 -7.10543e-015 0.220436 35.504 -9.38643 -1.42109e-014 -6.44418 14.8712 -6.36111e-015 0 7.95139e-015 -9.91412 -1.42109e-014 0 -2.89738 -35.5153 -7.25788 -2.84217e-014 -41.4279 0 8.79249 45.3204 3.5022 0 -41.0254 -7.10543e-015 19.3406 5.56562 -11.5133 1.42109e-014 -6.44418 14.8712 3.18055e-015 1.59028e-015 -9.54166e-015 
0 0 0 0 0 -0 114.127 97.6287 26.4874 6.72329 -12.0575 153.502 0 8.12958 3.55271e-015 6.35024 3.62259 -17.1382 0 26.3907 0 -1.70051 1.8905 -16.9091 -1.42109e-014 26.2823 2.3893 7.6942 -0.014739 14.0216 0 13.8798 -1.98282 -13.4756 4.09332 12.0383 3.97789 23.5745 -0.27352 0.679832 10.1676 -4.66411 13.7626 0 1.42109e-014 -25.9036 24.1472 -41.1516 26.1014 0 0 15.0951 -57.9106 -107.584 29.9599 -1.24345e-014 1.77636e-015 -10.029 -43.8674 -17.1655 -3.9517 23.5745 -0.27352 14.1187 26.2898 -15.9601 -13.7626 2.84217e-014 -1.24345e-014 53.193 18.6997 -26.9549 -26.1014 0 -1.42109e-014 4.91028 2.14665 10.4801 -29.9599 2.84217e-014 -1.42109e-014 27.252 4.28335 10.6534 9.91412 0 0 4.82764 17.7978 1.26619 0 -41.4279 7.10543e-015 0.96401 9.53123 -3.21806 0 -41.0254 3.55271e-015 -0.828102 35.5756 -7.80257 0 -6.44418 14.8712 6.36111e-015 3.18055e-015 3.97569e-015 -9.91412 0 0 -2.9504 -35.5663 -7.33997 0 -41.4279 0 8.53921 44.0524 3.65214 0 -41.0254 -1.06581e-014 19.3531 6.54078 -11.718 2.84217e-014 -6.44418 14.8712 3.18055e-015 -3.18055e-015 -6.36111e-015 
0 0 0 0 0 -0 114.561 97.867 25.8474 6.53621 -12.1116 153.67 -2.84217e-014 8.12958 0 6.26456 3.41737 -17.2042 1.42109e-014 26.3907 0 -1.81172 1.78509 -16.9889 1.42109e-014 26.2823 2.3893 7.92741 0.160824 14.0225 0 13.8798 -1.98282 -13.6202 4.04572 11.9957 3.97789 23.5745 -0.27352 0.798688 10.0146 -4.9544 13.7626 -2.84217e-014 -7.10543e-015 -25.9986 23.6241 -41.2628 26.1014 1.42109e-014 0 15.6545 -58.2165 -107.297 29.9599 3.55271e-015 1.59872e-014 -10.0811 -43.7994 -16.8999 -3.9517 23.5745 -0.27352 14.0307 26.0735 -15.847 -13.7626 0 -3.55271e-015 53.4324 18.7537 -27.7029 -26.1014 0 -1.42109e-014 4.8086 1.81117 10.4273 -29.9599 2.84217e-014 1.42109e-014 27.8731 3.97777 10.4789 9.91412 0 0 4.87135 17.7544 1.58721 -1.42109e-014 -41.4279 7.10543e-015 0.935407 9.65074 -2.63889 -1.42109e-014 -41.0254 -1.06581e-014 -0.835409 35.6869 -7.68855 1.42109e-014 -6.44418 14.8712 -1.54487e-031 1.59028e-015 5.56597e-015 -9.91412 0 3.55271e-015 -2.98642 -35.6274 -7.36885 0 -41.4279 -1.42109e-014 8.27955 42.8841 3.72014 0 -41.0254 0 19.1347 7.52606 -11.8188 1.42109e-014 -6.44418 14.8712 1.59028e-015 -3.18055e-015 -3.18055e-015 
0 0 0 0 0 -0 114.976 98.0825 25.206 6.32172 -12.1391 153.829 0 8.12958 -7.10543e-015 6.14658 3.24958 -17.2739 0 26.3907 1.42109e-014 -1.88059 1.65328 -17.0723 1.42109e-014 26.2823 2.3893 8.04639 0.292826 14.0421 1.42109e-014 13.8798 -1.98282 -13.6271 4.03236 12.0056 3.97789 23.5745 -0.27352 0.869552 9.86079 -5.2285 13.7626 0 -7.10543e-015 -26.0893 23.2342 -41.322 26.1014 -1.42109e-014 1.42109e-014 16.4004 -58.657 -106.864 29.9599 -1.59872e-014 -1.06581e-014 -10.2986 -43.7455 -16.8395 -3.9517 23.5745 -0.27352 14.005 26.2282 -15.9392 -13.7626 -2.84217e-014 -5.32907e-015 53.5286 18.7689 -27.9315 -26.1014 0 -1.42109e-014 4.76009 1.46363 10.3632 -29.9599 -2.84217e-014 0 28.5727 3.64353 10.2349 9.91412 1.42109e-014 -7.10543e-015 4.80542 17.687 1.7816 -1.42109e-014 -41.4279 -1.06581e-014 1.001 9.91801 -2.46332 0 -41.0254 3.55271e-015 -1.0558 35.4516 -7.05972 0 -6.44418 14.8712 -3.18055e-015 0 -7.95139e-016 -9.91412 1.42109e-014 -1.06581e-014 -3.08543 -35.6381 -7.39035 0 -41.4279 0 8.07208 41.6416 3.73183 2.84217e-014 -41.0254 0 19.2901 8.46406 -11.9769 -1.42109e-014 -6.44418 14.8712 3.18055e-015 0 -6.36111e-015 
